<?xml version="1.0" ?><!DOCTYPE svg  PUBLIC '-//W3C//DTD SVG 1.1//EN'  'http://www.w3.org/Graphics/SVG/1.1/DTD/svg11.dtd'><svg enable-background="new 0 0 32 32" height="32px" version="1.1" viewBox="0 0 32 32" width="32px" xml:space="preserve" xmlns="http://www.w3.org/2000/svg" xmlns:xlink="http://www.w3.org/1999/xlink"><g id="hand_x2C__prayer_x2C__prays_x2C__faith"><g id="XMLID_125_"><g id="XMLID_133_"><g id="XMLID_210_"><path d="M17.414,16.636c-2.121,2.507-2.036,6.96,0.838,8.637c0.261,0.152,0.521,0.305,0.756,0.496      c0,0,4.736,4.502,5.893,5.034c0.728,0.334,2.204,0.438,3.548,0.096c2.477-0.631,3.047-3.858,0.979-5.359      c-2.051-1.489-5.025-3.894-5.025-3.894c-0.641-0.483-0.784-1.384-0.833-1.953l-0.042-5.24c-0.06-0.696-0.215-1.38-0.461-2.033      L21.04,7.028l-2.733-5.327c-0.403-0.61-3.12,0.276-2.116,3.125c0.533,1.504,1.052,3.609,1.706,4.397l1.12,4.132      c0.212,0.529,0.081,1.313-0.289,1.746L17.414,16.636z" fill="#FFE0B2"/></g><g id="XMLID_185_"><path d="M17.414,16.636l1.313-1.535c0.37-0.432,0.501-1.217,0.289-1.746l-1.032-3.809      c-0.059-0.214-0.165-0.408-0.28-0.597C17.138,8.02,16.67,6.18,16.19,4.826c-0.379-1.076-0.227-1.871,0.131-2.412      c0.438-0.161,0.848-0.132,0.985,0.077l2.684,5.229c0.033,0.065,0.063,0.132,0.088,0.2l1.987,5.289      c0.246,0.654,0.301,1.338,0.361,2.034l-0.138,4.82c0.049,0.568,0.347,1.536,1.012,2.142c0,0,3.612,3.368,6.362,4.886      c1.294,0.714,1.297,2.587,0.012,3.317c-1.536,0.872-3.811,0.838-4.774,0.395c-1.156-0.532-5.893-5.034-5.893-5.034      c-0.234-0.191-0.495-0.344-0.756-0.496C15.378,23.596,15.293,19.143,17.414,16.636z" fill="#EAC89B"/></g><g id="XMLID_134_"><path d="M18.619,10.14l1.055,7.581l-3.096,0.294l-0.532-3.826C15.542,10.568,18.106,10.211,18.619,10.14z" fill="#EAC89B"/></g></g><g id="XMLID_91_"><g id="XMLID_123_"><path d="M14.512,16.636c2.12,2.507,2.035,6.96-0.839,8.637c-0.261,0.152-0.521,0.305-0.756,0.496      c0,0-4.736,4.502-5.893,5.034c-0.728,0.334-2.204,0.438-3.548,0.096C1,30.268,0.43,27.041,2.498,25.54      c2.051-1.489,5.025-3.894,5.025-3.894c0.641-0.483,0.784-1.384,0.833-1.953l0.042-5.24c0.061-0.696,0.215-1.38,0.461-2.033      l2.025-5.392l2.733-5.327c0.403-0.61,3.12,0.276,2.116,3.125c-0.533,1.504-1.052,3.609-1.706,4.397l-1.12,4.132      c-0.212,0.529-0.081,1.313,0.289,1.746L14.512,16.636z" fill="#FFE0B2"/></g><g id="XMLID_131_"><path d="M14.512,16.636l-1.314-1.535c-0.37-0.432-0.501-1.217-0.289-1.746l1.032-3.809      c0.059-0.214,0.165-0.408,0.28-0.597c0.566-0.929,1.034-2.77,1.514-4.124c0.379-1.076,0.227-1.871-0.131-2.412      c-0.438-0.161-0.848-0.132-0.985,0.077l-2.684,5.229c-0.033,0.065-0.063,0.132-0.088,0.2L9.859,13.21      c-0.246,0.654-0.301,1.338-0.36,2.034l0.137,4.82c-0.049,0.568-0.347,1.536-1.012,2.142c0,0-3.612,3.368-6.362,4.886      c-1.294,0.714-1.297,2.587-0.012,3.317c1.536,0.872,3.811,0.838,4.774,0.395c1.156-0.532,5.893-5.034,5.893-5.034      c0.234-0.191,0.495-0.344,0.756-0.496C16.547,23.596,16.632,19.143,14.512,16.636z" fill="#EAC89B"/></g><g id="XMLID_303_"><path d="M13.306,10.14l-1.055,7.581l3.096,0.294l0.532-3.826C16.383,10.568,13.818,10.211,13.306,10.14z" fill="#EAC89B"/></g></g></g><g id="XMLID_19_"><g id="XMLID_126_"><g id="XMLID_130_"><path d="M17.414,16.636" fill="none" stroke="#455A64" stroke-linecap="round" stroke-linejoin="round" stroke-miterlimit="10"/></g><g id="XMLID_129_"><path d="M30.184,26.518c-0.092,0-0.184-0.025-0.267-0.077c-2.402-1.513-5.29-3.825-5.88-4.452      c-0.785-0.835-0.911-1.6-0.967-2.251l-0.044-5.28c-0.055-0.615-0.2-1.256-0.431-1.868l-2.023-5.386l-2.663-5.183      c-0.158-0.023-0.58,0.059-0.935,0.388c-0.537,0.499-0.648,1.298-0.313,2.251c0.211,0.594,0.509,1.283,0.797,1.949      c0.457,1.056,0.852,1.967,0.933,2.545c0.038,0.273-0.152,0.526-0.426,0.565c-0.27,0.036-0.526-0.152-0.564-0.425      c-0.063-0.444-0.468-1.381-0.86-2.287c-0.295-0.681-0.6-1.386-0.822-2.013c-0.696-1.978,0.2-3.248,1.181-3.735      c0.746-0.371,1.515-0.3,1.824,0.168L21.485,6.8l2.046,5.438c0.263,0.696,0.429,1.428,0.493,2.173l0.044,5.28      c0.045,0.508,0.13,1.01,0.697,1.613c0.472,0.502,3.249,2.756,5.685,4.291c0.233,0.147,0.304,0.456,0.156,0.689      C30.512,26.435,30.35,26.518,30.184,26.518z" fill="#455A64"/></g><g id="XMLID_128_"><path d="M24.472,31.036c-0.118,0-0.237-0.042-0.332-0.126l-4.22-3.749c-0.46-0.408-0.948-0.745-1.451-1.003      c-0.21-0.107-0.431-0.237-0.616-0.379c-2.272-1.736-3.056-5.01-1.862-7.785c0.108-0.254,0.402-0.369,0.656-0.262      c0.254,0.109,0.371,0.403,0.262,0.657c-1.015,2.359-0.362,5.132,1.552,6.595c0.139,0.106,0.305,0.203,0.464,0.283      c0.579,0.297,1.137,0.683,1.66,1.146l4.22,3.749c0.206,0.184,0.226,0.5,0.042,0.706C24.747,30.979,24.609,31.036,24.472,31.036z      " fill="#455A64"/></g><g id="XMLID_127_"><path d="M16.577,18.515c-0.245,0-0.459-0.181-0.494-0.431l-0.532-3.826c-0.238-1.708,0.124-2.988,1.075-3.804      c0.753-0.646,1.635-0.769,1.924-0.809c0.266-0.042,0.526,0.152,0.564,0.426l1.055,7.581c0.038,0.273-0.152,0.526-0.426,0.564      c-0.272,0.037-0.526-0.152-0.564-0.426l-0.981-7.054c-0.28,0.08-0.621,0.221-0.921,0.478c-0.676,0.58-0.923,1.558-0.735,2.907      l0.532,3.826c0.038,0.273-0.152,0.526-0.426,0.564C16.624,18.513,16.601,18.515,16.577,18.515z" fill="#455A64"/></g></g><g id="XMLID_223_"><g id="XMLID_294_"><path d="M14.512,16.636" fill="none" stroke="#455A64" stroke-linecap="round" stroke-linejoin="round" stroke-miterlimit="10"/></g><g id="XMLID_277_"><path d="M1.741,26.518c-0.166,0-0.328-0.083-0.423-0.233c-0.147-0.234-0.077-0.542,0.156-0.689      c2.436-1.535,5.213-3.789,5.685-4.291c0.567-0.604,0.652-1.105,0.699-1.652l0.04-5.202c0.066-0.784,0.232-1.516,0.495-2.212      l2.023-5.385l2.756-5.379c0.339-0.517,1.107-0.585,1.853-0.216c0.98,0.487,1.877,1.758,1.181,3.734      c-0.223,0.628-0.527,1.333-0.822,2.014c-0.393,0.906-0.798,1.843-0.86,2.287c-0.038,0.273-0.291,0.465-0.564,0.425      c-0.273-0.039-0.464-0.292-0.426-0.565c0.081-0.578,0.476-1.489,0.933-2.545c0.288-0.666,0.586-1.354,0.797-1.95      c0.336-0.952,0.225-1.751-0.313-2.25c-0.354-0.329-0.775-0.411-0.935-0.388L11.33,7.256l-2.001,5.333      c-0.23,0.612-0.376,1.253-0.433,1.907l-0.04,5.202c-0.058,0.69-0.184,1.455-0.969,2.29c-0.59,0.627-3.478,2.939-5.88,4.452      C1.925,26.493,1.833,26.518,1.741,26.518z" fill="#455A64"/></g><g id="XMLID_278_"><path d="M7.453,31.036c-0.138,0-0.275-0.057-0.374-0.168c-0.184-0.207-0.164-0.522,0.042-0.706l4.221-3.749      c0.521-0.463,1.079-0.848,1.657-1.145c0.161-0.082,0.327-0.178,0.466-0.284c1.914-1.463,2.566-4.236,1.552-6.595      c-0.109-0.254,0.008-0.548,0.262-0.657c0.252-0.106,0.548,0.008,0.656,0.262c1.193,2.774,0.41,6.048-1.862,7.785      c-0.186,0.142-0.406,0.272-0.618,0.38c-0.502,0.257-0.99,0.595-1.448,1.002L7.785,30.91C7.689,30.995,7.571,31.036,7.453,31.036      z" fill="#455A64"/></g><g id="XMLID_275_"><path d="M15.348,18.515c-0.023,0-0.047-0.001-0.07-0.005c-0.273-0.038-0.464-0.291-0.426-0.564l0.532-3.826      c0.188-1.35-0.06-2.328-0.735-2.907c-0.3-0.257-0.641-0.398-0.921-0.478l-0.981,7.054c-0.038,0.274-0.293,0.467-0.564,0.426      c-0.273-0.038-0.464-0.291-0.426-0.564l1.055-7.581c0.039-0.274,0.297-0.464,0.564-0.426c0.289,0.04,1.171,0.163,1.924,0.809      c0.951,0.815,1.313,2.095,1.075,3.804l-0.532,3.826C15.807,18.333,15.593,18.515,15.348,18.515z" fill="#455A64"/></g></g></g></g></svg>